<svg width="685" height="101" viewBox="0 0 685 101" fill="none" xmlns="http://www.w3.org/2000/svg">
<path d="M42.4568 1L84.9136 73H0L42.4568 1Z" fill="#7BD3B2"/>
<path d="M83.6618 73H42.7576V1.58896H42.8041L83.6618 70.8771V73Z" fill="#F4BCBB"/>
<ellipse cx="120.908" cy="37" rx="36.092" ry="36" fill="#7BD3B2"/>
<mask id="mask0_14_28" style="mask-type:alpha" maskUnits="userSpaceOnUse" x="84" y="1" width="73" height="72">
<ellipse cx="120.908" cy="37" rx="36.092" ry="36" fill="#F4BCBB"/>
</mask>
<g mask="url(#mask0_14_28)">
<rect x="121.51" y="36.4" width="36.092" height="36" fill="#F4BCBB"/>
</g>
<mask id="mask1_14_28" style="mask-type:alpha" maskUnits="userSpaceOnUse" x="84" y="1" width="73" height="72">
<ellipse cx="120.908" cy="37" rx="36.092" ry="36" fill="#ADA9FC"/>
</mask>
<g mask="url(#mask1_14_28)">
<rect x="121.51" y="0.399994" width="36.092" height="36" fill="#ADA9FC"/>
</g>
<mask id="mask2_14_28" style="mask-type:alpha" maskUnits="userSpaceOnUse" x="84" y="1" width="73" height="72">
<ellipse cx="120.908" cy="37" rx="36.092" ry="36" fill="#ADA9FC"/>
</mask>
<g mask="url(#mask2_14_28)">
<rect x="85.4176" y="36.4" width="36.0919" height="36" fill="#ADA9FC"/>
</g>
<path d="M173.072 73L203.408 0.711998H203.984L234.224 73H223.568L200.912 15.304L207.536 10.984L182.192 73H173.072ZM190.832 46.696H216.656L219.728 54.76H188.144L190.832 46.696ZM260.929 3.592C264.449 3.592 267.681 4.072 270.625 5.032C273.633 5.928 276.225 7.304 278.401 9.16C280.641 10.952 282.369 13.192 283.585 15.88C284.865 18.504 285.505 21.576 285.505 25.096C285.505 27.848 285.089 30.536 284.257 33.16C283.489 35.784 282.177 38.184 280.321 40.36C278.465 42.472 276.033 44.2 273.025 45.544C270.081 46.824 266.433 47.464 262.081 47.464H251.809V73H242.497V3.592H260.929ZM261.889 38.536C264.641 38.536 266.913 38.12 268.705 37.288C270.561 36.456 272.001 35.4 273.025 34.12C274.049 32.776 274.785 31.336 275.233 29.8C275.681 28.264 275.905 26.824 275.905 25.48C275.905 24.072 275.649 22.632 275.137 21.16C274.689 19.624 273.921 18.216 272.833 16.936C271.809 15.656 270.433 14.6 268.705 13.768C267.041 12.936 264.993 12.52 262.561 12.52H251.809V38.536H261.889ZM273.313 43.816L291.457 73H280.705L262.273 44.104L273.313 43.816ZM300.978 3.592H310.29V73H300.978V3.592ZM318.516 73L348.852 0.711998H349.428L379.668 73H369.012L346.356 15.304L352.98 10.984L327.636 73H318.516ZM336.276 46.696H362.1L365.172 54.76H333.588L336.276 46.696ZM409.195 38.344C409.195 33.544 410.091 29.032 411.883 24.808C413.739 20.52 416.299 16.744 419.563 13.48C422.827 10.152 426.571 7.56 430.795 5.704C435.083 3.784 439.691 2.824 444.619 2.824C449.483 2.824 454.027 3.784 458.251 5.704C462.539 7.56 466.315 10.152 469.579 13.48C472.907 16.744 475.499 20.52 477.355 24.808C479.211 29.032 480.139 33.544 480.139 38.344C480.139 43.272 479.211 47.88 477.355 52.168C475.499 56.456 472.907 60.232 469.579 63.496C466.315 66.696 462.539 69.224 458.251 71.08C454.027 72.872 449.483 73.768 444.619 73.768C439.691 73.768 435.083 72.872 430.795 71.08C426.571 69.288 422.827 66.792 419.563 63.592C416.299 60.392 413.739 56.648 411.883 52.36C410.091 48.072 409.195 43.4 409.195 38.344ZM418.795 38.44C418.795 42.088 419.467 45.512 420.811 48.712C422.155 51.848 424.011 54.632 426.379 57.064C428.747 59.496 431.499 61.416 434.635 62.824C437.771 64.168 441.163 64.84 444.811 64.84C448.395 64.84 451.755 64.168 454.891 62.824C458.027 61.416 460.747 59.496 463.051 57.064C465.355 54.632 467.179 51.848 468.523 48.712C469.867 45.512 470.539 42.056 470.539 38.344C470.539 34.696 469.867 31.272 468.523 28.072C467.179 24.808 465.323 21.96 462.955 19.528C460.587 17.096 457.835 15.208 454.699 13.864C451.563 12.456 448.203 11.752 444.619 11.752C440.971 11.752 437.579 12.456 434.443 13.864C431.307 15.272 428.555 17.192 426.187 19.624C423.819 22.056 421.995 24.904 420.715 28.168C419.435 31.368 418.795 34.792 418.795 38.44ZM526.932 15.976C524.564 14.76 521.972 13.704 519.156 12.808C516.34 11.912 513.588 11.464 510.9 11.464C507.188 11.464 504.212 12.328 501.972 14.056C499.796 15.784 498.708 18.088 498.708 20.968C498.708 23.144 499.412 25 500.82 26.536C502.228 28.008 504.084 29.288 506.388 30.376C508.692 31.464 511.092 32.488 513.588 33.448C515.764 34.28 517.908 35.208 520.02 36.232C522.132 37.256 524.02 38.536 525.684 40.072C527.412 41.608 528.756 43.496 529.716 45.736C530.74 47.976 531.252 50.76 531.252 54.088C531.252 57.736 530.324 61.064 528.468 64.072C526.676 67.08 524.084 69.448 520.692 71.176C517.3 72.904 513.268 73.768 508.596 73.768C505.524 73.768 502.58 73.416 499.764 72.712C497.012 72.008 494.452 71.112 492.084 70.024C489.716 68.872 487.604 67.688 485.748 66.472L489.876 59.176C491.412 60.264 493.172 61.32 495.156 62.344C497.14 63.304 499.22 64.104 501.396 64.744C503.572 65.32 505.684 65.608 507.732 65.608C509.908 65.608 512.052 65.224 514.164 64.456C516.34 63.624 518.132 62.376 519.54 60.712C520.948 59.048 521.652 56.84 521.652 54.088C521.652 51.72 521.012 49.768 519.732 48.232C518.516 46.632 516.884 45.288 514.836 44.2C512.788 43.048 510.612 42.024 508.308 41.128C506.132 40.296 503.924 39.4 501.684 38.44C499.444 37.416 497.364 36.2 495.444 34.792C493.524 33.32 491.988 31.528 490.836 29.416C489.684 27.304 489.108 24.744 489.108 21.736C489.108 18.088 489.972 14.92 491.7 12.232C493.492 9.48 495.924 7.33599 498.996 5.8C502.068 4.2 505.588 3.336 509.556 3.20799C514.036 3.20799 517.972 3.752 521.364 4.84C524.82 5.928 527.86 7.272 530.484 8.872L526.932 15.976ZM542.103 3.592H551.415V64.072H586.647V73H542.103V3.592ZM591.389 38.344C591.389 33.544 592.285 29.032 594.077 24.808C595.933 20.52 598.493 16.744 601.757 13.48C605.021 10.152 608.765 7.56 612.989 5.704C617.277 3.784 621.885 2.824 626.813 2.824C631.677 2.824 636.221 3.784 640.445 5.704C644.733 7.56 648.509 10.152 651.773 13.48C655.101 16.744 657.693 20.52 659.549 24.808C661.405 29.032 662.333 33.544 662.333 38.344C662.333 43.272 661.405 47.88 659.549 52.168C657.693 56.456 655.101 60.232 651.773 63.496C648.509 66.696 644.733 69.224 640.445 71.08C636.221 72.872 631.677 73.768 626.813 73.768C621.885 73.768 617.277 72.872 612.989 71.08C608.765 69.288 605.021 66.792 601.757 63.592C598.493 60.392 595.933 56.648 594.077 52.36C592.285 48.072 591.389 43.4 591.389 38.344ZM600.989 38.44C600.989 42.088 601.661 45.512 603.005 48.712C604.349 51.848 606.205 54.632 608.573 57.064C610.941 59.496 613.693 61.416 616.829 62.824C619.965 64.168 623.357 64.84 627.005 64.84C630.589 64.84 633.949 64.168 637.085 62.824C640.221 61.416 642.941 59.496 645.245 57.064C647.549 54.632 649.373 51.848 650.717 48.712C652.061 45.512 652.733 42.056 652.733 38.344C652.733 34.696 652.061 31.272 650.717 28.072C649.373 24.808 647.517 21.96 645.149 19.528C642.781 17.096 640.029 15.208 636.893 13.864C633.757 12.456 630.397 11.752 626.813 11.752C623.165 11.752 619.773 12.456 616.637 13.864C613.501 15.272 610.749 17.192 608.381 19.624C606.013 22.056 604.189 24.904 602.909 28.168C601.629 31.368 600.989 34.792 600.989 38.44Z" fill="#F4BCBB"/>
</svg>
