<svg width="688" height="75" viewBox="0 0 688 75" fill="none" xmlns="http://www.w3.org/2000/svg">
<path d="M42.7272 1L85.4545 75H0L42.7272 1Z" fill="#7BD3B2"/>
<path d="M84.1947 75H43.0299V1.60532H43.0767L84.1947 72.8181V75Z" fill="#F4BCBB"/>
<ellipse cx="121.678" cy="38" rx="36.3218" ry="37" fill="#7BD3B2"/>
<mask id="mask0_14_28" style="mask-type:alpha" maskUnits="userSpaceOnUse" x="85" y="1" width="73" height="74">
<ellipse cx="121.678" cy="38" rx="36.3218" ry="37" fill="#F4BCBB"/>
</mask>
<g mask="url(#mask0_14_28)">
<rect x="122.284" y="37.3834" width="36.3218" height="37" fill="#F4BCBB"/>
</g>
<mask id="mask1_14_28" style="mask-type:alpha" maskUnits="userSpaceOnUse" x="85" y="1" width="73" height="74">
<ellipse cx="121.678" cy="38" rx="36.3218" ry="37" fill="#ADA9FC"/>
</mask>
<g mask="url(#mask1_14_28)">
<rect x="122.284" y="0.383331" width="36.3218" height="37" fill="#ADA9FC"/>
</g>
<mask id="mask2_14_28" style="mask-type:alpha" maskUnits="userSpaceOnUse" x="85" y="1" width="73" height="74">
<ellipse cx="121.678" cy="38" rx="36.3218" ry="37" fill="#ADA9FC"/>
</mask>
<g mask="url(#mask2_14_28)">
<rect x="85.9617" y="37.3834" width="36.3218" height="37" fill="#ADA9FC"/>
</g>
<path d="M173.049 73L203.961 0.231998H204.633L235.545 73H222.681L200.889 17.8L208.953 12.328L184.089 73H173.049ZM192.441 47.08H216.345L220.185 56.584H189.081L192.441 47.08ZM262.35 3.112C266.19 3.112 269.71 3.624 272.91 4.648C276.11 5.608 278.83 7.048 281.07 8.96799C283.31 10.888 285.038 13.256 286.254 16.072C287.534 18.824 288.174 21.992 288.174 25.576C288.174 28.328 287.758 31.08 286.926 33.832C286.094 36.584 284.718 39.08 282.798 41.32C280.942 43.56 278.478 45.352 275.406 46.696C272.334 48.04 268.526 48.712 263.982 48.712H253.902V73H242.67V3.112H262.35ZM263.886 37.96C266.382 37.96 268.462 37.576 270.126 36.808C271.79 35.976 273.07 34.952 273.966 33.736C274.926 32.52 275.598 31.24 275.982 29.896C276.43 28.488 276.654 27.176 276.654 25.96C276.654 24.808 276.462 23.56 276.078 22.216C275.694 20.808 275.054 19.496 274.158 18.28C273.262 17 271.982 15.944 270.318 15.112C268.718 14.28 266.702 13.864 264.27 13.864H253.902V37.96H263.886ZM275.982 44.584L293.838 73H280.878L262.638 44.872L275.982 44.584ZM302.182 3.112H313.414V73H302.182V3.112ZM320.555 73L351.467 0.231998H352.139L383.051 73H370.187L348.395 17.8L356.459 12.328L331.595 73H320.555ZM339.947 47.08H363.851L367.691 56.584H336.587L339.947 47.08ZM411.806 38.152C411.806 33.288 412.734 28.712 414.59 24.424C416.446 20.136 419.006 16.328 422.27 13C425.534 9.672 429.31 7.08 433.598 5.224C437.95 3.304 442.59 2.34399 447.518 2.34399C452.382 2.34399 456.958 3.304 461.246 5.224C465.598 7.08 469.406 9.672 472.67 13C475.998 16.328 478.59 20.136 480.446 24.424C482.366 28.712 483.326 33.288 483.326 38.152C483.326 43.08 482.366 47.688 480.446 51.976C478.59 56.264 475.998 60.072 472.67 63.4C469.406 66.664 465.598 69.224 461.246 71.08C456.958 72.872 452.382 73.768 447.518 73.768C442.526 73.768 437.886 72.872 433.598 71.08C429.31 69.224 425.534 66.696 422.27 63.496C419.006 60.232 416.446 56.456 414.59 52.168C412.734 47.816 411.806 43.144 411.806 38.152ZM423.326 38.152C423.326 41.608 423.934 44.84 425.15 47.848C426.43 50.856 428.19 53.512 430.43 55.816C432.67 58.056 435.262 59.816 438.206 61.096C441.15 62.376 444.35 63.016 447.806 63.016C451.134 63.016 454.238 62.376 457.118 61.096C460.062 59.816 462.622 58.056 464.798 55.816C466.974 53.512 468.67 50.856 469.886 47.848C471.166 44.84 471.806 41.608 471.806 38.152C471.806 34.632 471.166 31.368 469.886 28.36C468.606 25.352 466.878 22.696 464.702 20.392C462.526 18.088 459.966 16.296 457.022 15.016C454.078 13.736 450.91 13.096 447.518 13.096C444.126 13.096 440.958 13.736 438.014 15.016C435.07 16.296 432.478 18.088 430.238 20.392C428.062 22.696 426.366 25.384 425.15 28.456C423.934 31.464 423.326 34.696 423.326 38.152ZM530.123 17.32C527.627 16.04 524.971 14.952 522.155 14.056C519.339 13.096 516.651 12.616 514.091 12.616C510.635 12.616 507.883 13.384 505.835 14.92C503.851 16.456 502.859 18.568 502.859 21.256C502.859 23.176 503.563 24.872 504.971 26.344C506.379 27.752 508.171 29 510.347 30.088C512.523 31.112 514.827 32.104 517.259 33.064C519.371 33.832 521.451 34.76 523.499 35.848C525.611 36.872 527.499 38.152 529.163 39.688C530.827 41.224 532.139 43.144 533.099 45.448C534.123 47.688 534.635 50.472 534.635 53.8C534.635 57.448 533.707 60.808 531.851 63.88C529.995 66.888 527.339 69.288 523.883 71.08C520.427 72.872 516.203 73.768 511.211 73.768C508.331 73.768 505.483 73.448 502.667 72.808C499.915 72.168 497.291 71.304 494.795 70.216C492.299 69.064 489.995 67.784 487.883 66.376L492.875 57.64C494.411 58.792 496.171 59.848 498.155 60.808C500.139 61.768 502.187 62.536 504.299 63.112C506.411 63.624 508.395 63.88 510.251 63.88C512.235 63.88 514.187 63.56 516.107 62.92C518.091 62.28 519.723 61.224 521.003 59.752C522.347 58.28 523.019 56.328 523.019 53.896C523.019 51.912 522.443 50.216 521.291 48.808C520.139 47.4 518.635 46.184 516.779 45.16C514.987 44.072 513.003 43.112 510.827 42.28C508.651 41.448 506.411 40.52 504.107 39.496C501.867 38.472 499.787 37.224 497.867 35.752C495.947 34.216 494.379 32.36 493.163 30.184C491.947 28.008 491.339 25.32 491.339 22.12C491.339 18.28 492.235 14.952 494.027 12.136C495.819 9.32 498.283 7.08 501.419 5.41599C504.619 3.752 508.299 2.856 512.459 2.72799C517.387 2.72799 521.579 3.33599 525.035 4.55199C528.555 5.70399 531.659 7.112 534.347 8.776L530.123 17.32ZM544.526 3.112H555.758V62.248H590.222V73H544.526V3.112ZM594.281 38.152C594.281 33.288 595.209 28.712 597.065 24.424C598.921 20.136 601.481 16.328 604.745 13C608.009 9.672 611.785 7.08 616.073 5.224C620.425 3.304 625.065 2.34399 629.993 2.34399C634.857 2.34399 639.433 3.304 643.721 5.224C648.073 7.08 651.881 9.672 655.145 13C658.473 16.328 661.065 20.136 662.921 24.424C664.841 28.712 665.801 33.288 665.801 38.152C665.801 43.08 664.841 47.688 662.921 51.976C661.065 56.264 658.473 60.072 655.145 63.4C651.881 66.664 648.073 69.224 643.721 71.08C639.433 72.872 634.857 73.768 629.993 73.768C625.001 73.768 620.361 72.872 616.073 71.08C611.785 69.224 608.009 66.696 604.745 63.496C601.481 60.232 598.921 56.456 597.065 52.168C595.209 47.816 594.281 43.144 594.281 38.152ZM605.801 38.152C605.801 41.608 606.409 44.84 607.625 47.848C608.905 50.856 610.665 53.512 612.905 55.816C615.145 58.056 617.737 59.816 620.681 61.096C623.625 62.376 626.825 63.016 630.281 63.016C633.609 63.016 636.713 62.376 639.593 61.096C642.537 59.816 645.097 58.056 647.273 55.816C649.449 53.512 651.145 50.856 652.361 47.848C653.641 44.84 654.281 41.608 654.281 38.152C654.281 34.632 653.641 31.368 652.361 28.36C651.081 25.352 649.353 22.696 647.177 20.392C645.001 18.088 642.441 16.296 639.497 15.016C636.553 13.736 633.385 13.096 629.993 13.096C626.601 13.096 623.433 13.736 620.489 15.016C617.545 16.296 614.953 18.088 612.713 20.392C610.537 22.696 608.841 25.384 607.625 28.456C606.409 31.464 605.801 34.696 605.801 38.152Z" fill="#F4BCBB"/>
</svg>
