<svg width="697" height="75" viewBox="0 0 697 75" fill="none" xmlns="http://www.w3.org/2000/svg">
<path d="M42.7272 1L85.4545 75H0L42.7272 1Z" fill="#7BD3B2"/>
<path d="M84.1947 75H43.0299V1.60532H43.0767L84.1947 72.8181V75Z" fill="#F4BCBB"/>
<ellipse cx="121.678" cy="38" rx="36.3218" ry="37" fill="#7BD3B2"/>
<mask id="mask0_14_28" style="mask-type:alpha" maskUnits="userSpaceOnUse" x="85" y="1" width="73" height="74">
<ellipse cx="121.678" cy="38" rx="36.3218" ry="37" fill="#F4BCBB"/>
</mask>
<g mask="url(#mask0_14_28)">
<rect x="122.284" y="37.3834" width="36.3218" height="37" fill="#F4BCBB"/>
</g>
<mask id="mask1_14_28" style="mask-type:alpha" maskUnits="userSpaceOnUse" x="85" y="1" width="73" height="74">
<ellipse cx="121.678" cy="38" rx="36.3218" ry="37" fill="#ADA9FC"/>
</mask>
<g mask="url(#mask1_14_28)">
<rect x="122.284" y="0.383331" width="36.3218" height="37" fill="#ADA9FC"/>
</g>
<mask id="mask2_14_28" style="mask-type:alpha" maskUnits="userSpaceOnUse" x="85" y="1" width="73" height="74">
<ellipse cx="121.678" cy="38" rx="36.3218" ry="37" fill="#ADA9FC"/>
</mask>
<g mask="url(#mask2_14_28)">
<rect x="85.9617" y="37.3834" width="36.3218" height="37" fill="#ADA9FC"/>
</g>
<path d="M192.304 73L223.216 0.231998H223.888L254.8 73H241.936L220.144 17.8L228.208 12.328L203.344 73H192.304ZM211.696 47.08H235.6L239.44 56.584H208.336L211.696 47.08ZM281.605 3.112C285.445 3.112 288.965 3.624 292.165 4.648C295.365 5.608 298.085 7.048 300.325 8.96799C302.565 10.888 304.293 13.256 305.509 16.072C306.789 18.824 307.429 21.992 307.429 25.576C307.429 28.328 307.013 31.08 306.181 33.832C305.349 36.584 303.973 39.08 302.053 41.32C300.197 43.56 297.733 45.352 294.661 46.696C291.589 48.04 287.781 48.712 283.237 48.712H273.157V73H261.925V3.112H281.605ZM283.141 37.96C285.637 37.96 287.717 37.576 289.381 36.808C291.045 35.976 292.325 34.952 293.221 33.736C294.181 32.52 294.853 31.24 295.237 29.896C295.685 28.488 295.909 27.176 295.909 25.96C295.909 24.808 295.717 23.56 295.333 22.216C294.949 20.808 294.309 19.496 293.413 18.28C292.517 17 291.237 15.944 289.573 15.112C287.973 14.28 285.957 13.864 283.525 13.864H273.157V37.96H283.141ZM295.237 44.584L313.093 73H300.133L281.893 44.872L295.237 44.584ZM321.438 3.112H332.67V73H321.438V3.112ZM339.81 73L370.722 0.231998H371.394L402.306 73H389.442L367.65 17.8L375.714 12.328L350.85 73H339.81ZM359.202 47.08H383.106L386.946 56.584H355.842L359.202 47.08ZM431.061 38.152C431.061 33.288 431.989 28.712 433.845 24.424C435.701 20.136 438.261 16.328 441.525 13C444.789 9.672 448.565 7.08 452.853 5.224C457.205 3.304 461.845 2.34399 466.773 2.34399C471.637 2.34399 476.213 3.304 480.501 5.224C484.853 7.08 488.661 9.672 491.925 13C495.253 16.328 497.845 20.136 499.701 24.424C501.621 28.712 502.581 33.288 502.581 38.152C502.581 43.08 501.621 47.688 499.701 51.976C497.845 56.264 495.253 60.072 491.925 63.4C488.661 66.664 484.853 69.224 480.501 71.08C476.213 72.872 471.637 73.768 466.773 73.768C461.781 73.768 457.141 72.872 452.853 71.08C448.565 69.224 444.789 66.696 441.525 63.496C438.261 60.232 435.701 56.456 433.845 52.168C431.989 47.816 431.061 43.144 431.061 38.152ZM442.581 38.152C442.581 41.608 443.189 44.84 444.405 47.848C445.685 50.856 447.445 53.512 449.685 55.816C451.925 58.056 454.517 59.816 457.461 61.096C460.405 62.376 463.605 63.016 467.061 63.016C470.389 63.016 473.493 62.376 476.373 61.096C479.317 59.816 481.877 58.056 484.053 55.816C486.229 53.512 487.925 50.856 489.141 47.848C490.421 44.84 491.061 41.608 491.061 38.152C491.061 34.632 490.421 31.368 489.141 28.36C487.861 25.352 486.133 22.696 483.957 20.392C481.781 18.088 479.221 16.296 476.277 15.016C473.333 13.736 470.165 13.096 466.773 13.096C463.381 13.096 460.213 13.736 457.269 15.016C454.325 16.296 451.733 18.088 449.493 20.392C447.317 22.696 445.621 25.384 444.405 28.456C443.189 31.464 442.581 34.696 442.581 38.152ZM549.378 17.32C546.882 16.04 544.226 14.952 541.41 14.056C538.594 13.096 535.906 12.616 533.346 12.616C529.89 12.616 527.138 13.384 525.09 14.92C523.106 16.456 522.114 18.568 522.114 21.256C522.114 23.176 522.818 24.872 524.226 26.344C525.634 27.752 527.426 29 529.602 30.088C531.778 31.112 534.082 32.104 536.514 33.064C538.626 33.832 540.706 34.76 542.754 35.848C544.866 36.872 546.754 38.152 548.418 39.688C550.082 41.224 551.394 43.144 552.354 45.448C553.378 47.688 553.89 50.472 553.89 53.8C553.89 57.448 552.962 60.808 551.106 63.88C549.25 66.888 546.594 69.288 543.138 71.08C539.682 72.872 535.458 73.768 530.466 73.768C527.586 73.768 524.738 73.448 521.922 72.808C519.17 72.168 516.546 71.304 514.05 70.216C511.554 69.064 509.25 67.784 507.138 66.376L512.13 57.64C513.666 58.792 515.426 59.848 517.41 60.808C519.394 61.768 521.442 62.536 523.554 63.112C525.666 63.624 527.65 63.88 529.506 63.88C531.49 63.88 533.442 63.56 535.362 62.92C537.346 62.28 538.978 61.224 540.258 59.752C541.602 58.28 542.274 56.328 542.274 53.896C542.274 51.912 541.698 50.216 540.546 48.808C539.394 47.4 537.89 46.184 536.034 45.16C534.242 44.072 532.258 43.112 530.082 42.28C527.906 41.448 525.666 40.52 523.362 39.496C521.122 38.472 519.042 37.224 517.122 35.752C515.202 34.216 513.634 32.36 512.418 30.184C511.202 28.008 510.594 25.32 510.594 22.12C510.594 18.28 511.49 14.952 513.282 12.136C515.074 9.32 517.538 7.08 520.674 5.41599C523.874 3.752 527.554 2.856 531.714 2.72799C536.642 2.72799 540.834 3.33599 544.29 4.55199C547.81 5.70399 550.914 7.112 553.602 8.776L549.378 17.32ZM563.781 3.112H575.013V62.248H609.477V73H563.781V3.112ZM613.536 38.152C613.536 33.288 614.464 28.712 616.32 24.424C618.176 20.136 620.736 16.328 624 13C627.264 9.672 631.04 7.08 635.328 5.224C639.68 3.304 644.32 2.34399 649.248 2.34399C654.112 2.34399 658.688 3.304 662.976 5.224C667.328 7.08 671.136 9.672 674.4 13C677.728 16.328 680.32 20.136 682.176 24.424C684.096 28.712 685.056 33.288 685.056 38.152C685.056 43.08 684.096 47.688 682.176 51.976C680.32 56.264 677.728 60.072 674.4 63.4C671.136 66.664 667.328 69.224 662.976 71.08C658.688 72.872 654.112 73.768 649.248 73.768C644.256 73.768 639.616 72.872 635.328 71.08C631.04 69.224 627.264 66.696 624 63.496C620.736 60.232 618.176 56.456 616.32 52.168C614.464 47.816 613.536 43.144 613.536 38.152ZM625.056 38.152C625.056 41.608 625.664 44.84 626.88 47.848C628.16 50.856 629.92 53.512 632.16 55.816C634.4 58.056 636.992 59.816 639.936 61.096C642.88 62.376 646.08 63.016 649.536 63.016C652.864 63.016 655.968 62.376 658.848 61.096C661.792 59.816 664.352 58.056 666.528 55.816C668.704 53.512 670.4 50.856 671.616 47.848C672.896 44.84 673.536 41.608 673.536 38.152C673.536 34.632 672.896 31.368 671.616 28.36C670.336 25.352 668.608 22.696 666.432 20.392C664.256 18.088 661.696 16.296 658.752 15.016C655.808 13.736 652.64 13.096 649.248 13.096C645.856 13.096 642.688 13.736 639.744 15.016C636.8 16.296 634.208 18.088 631.968 20.392C629.792 22.696 628.096 25.384 626.88 28.456C625.664 31.464 625.056 34.696 625.056 38.152Z" fill="#F4BCBB"/>
</svg>
